<svg width="21" height="17" viewBox="0 0 21 17" fill="none" xmlns="http://www.w3.org/2000/svg">
<path d="M20.383 2.156C19.6196 2.4937 18.81 2.71548 17.981 2.814C18.8548 2.29144 19.5087 1.46902 19.821 0.500003C19.001 0.988003 18.102 1.33 17.165 1.515C16.5356 0.841582 15.7014 0.394966 14.792 0.244588C13.8826 0.0942092 12.9489 0.248494 12.1363 0.683456C11.3236 1.11842 10.6774 1.80969 10.2981 2.6498C9.91884 3.4899 9.82775 4.43178 10.039 5.329C8.37611 5.24566 6.74933 4.81353 5.26429 4.06067C3.77924 3.30781 2.46913 2.25105 1.419 0.959003C1.04729 1.59745 0.851955 2.32323 0.853 3.062C0.853 4.512 1.591 5.793 2.713 6.543C2.04901 6.5221 1.39963 6.34278 0.819 6.02V6.072C0.8192 7.0377 1.15337 7.97362 1.76485 8.72106C2.37633 9.46851 3.22748 9.98148 4.174 10.173C3.55761 10.34 2.91131 10.3647 2.284 10.245C2.55087 11.0762 3.07101 11.8032 3.77159 12.3241C4.47218 12.845 5.31813 13.1338 6.191 13.15C5.32348 13.8313 4.33018 14.335 3.26788 14.6322C2.20558 14.9294 1.09513 15.0143 0 14.882C1.9117 16.1114 4.1371 16.7641 6.41 16.762C14.103 16.762 18.31 10.389 18.31 4.862C18.31 4.682 18.305 4.5 18.297 4.322C19.1159 3.73017 19.8226 2.99702 20.384 2.157L20.383 2.156Z" fill="#607B96"/>
</svg>
